<?xml version="1.0" encoding="utf-8"?>
<!-- Generator: Adobe Illustrator 22.1.0, SVG Export Plug-In . SVG Version: 6.00 Build 0)  -->
<svg version="1.1" id="Layer_1" xmlns="http://www.w3.org/2000/svg" xmlns:xlink="http://www.w3.org/1999/xlink" x="0px" y="0px"
	 viewBox="0 0 500 500" style="enable-background:new 0 0 500 500;" xml:space="preserve">
<style type="text/css">
	.st0{fill:#CD0000;}
</style>
<path class="st0" d="M500,249.8C499.6,388.9,387.5,500.5,248.5,500C110.7,499.5-0.3,386.7,0,247.5C0.3,110.8,113.9-0.4,252.6,0
	C388.3,0.4,500.4,113.6,500,249.8z M250.1,85.4c-23.2,0-45.8,3.5-67.9,10.9c-90,30.2-134.3,132.9-93,216.1
	c7.7,15.5,18.1,28.7,33.3,37.8c6.5,3.9,10.3,3.2,12.2-4.6c1.9-7.8,5.2-15.4,6.4-23.3c0.8-4.8,0.2-10.8-2.2-14.8
	c-13.7-23.1-18.9-47.9-14.3-74.1c11.3-64.7,64-105.2,129.7-100.5c52.5,3.8,90.9,32.3,102.5,78.9c3.9,15.9,4.1,33.2,3.1,49.7
	c-1.9,30.7-11.4,59.2-32.2,82.9c-14.5,16.5-32.6,26.1-54.9,26.1c-30.3,0-48.6-24.2-40.2-53.2c4.2-14.6,10.1-28.8,14.1-43.4
	c4.4-16,9.9-32.3,10.6-48.7c1.1-29.1-27.1-44.6-52.8-30.5c-14.8,8.1-24.4,21.2-27.2,37.1c-2.7,15.3-2.2,31.3-2.3,47
	c-0.1,24.3,3.9,48,12.7,70.9c11.1,28.7,30.6,49.5,59.7,59c42.5,13.8,81.1,2.6,114.5-25.2c37.4-31.1,54.5-73,59.6-120.6
	c4.6-43-5.3-82.1-33-115.7C352.8,103.7,305.2,86,250.1,85.4z"/>
</svg>
